# xmcd
#
# Track frame offsets:
#	150
#	17610
#	42975
#	56695
#	89245
#	98770
#	121080
#	148960
#
# Disc length: 2229 seconds
#
# Revision: 0
# Processed by: cddbd v1.5.2PL0 Copyright (c) Steve Scherf et al.
# Submitted via: EasyCDDAExtractor 9.0.0.1
#
DISCID=6d08b308
DTITLE=Ozzy Osbourne - Sportatorium Hollywood FL 05-09-86 Disc 2
DYEAR=1986
DGENRE=Hard Rock
TTITLE0=Thank God For The Bomb
TTITLE1=Flying High Again
TTITLE2=Secret Loser
TTITLE3=Drum Solo
TTITLE4=Secret Loser
TTITLE5=Iron Man
TTITLE6=Crazy Train
TTITLE7=Paranoid
EXTD=
EXTT0=
EXTT1=
EXTT2=
EXTT3=
EXTT4=
EXTT5=
EXTT6=
EXTT7=
PLAYORDER=
